<svg xmlns="http://www.w3.org/2000/svg" version="1.1" xmlns:xlink="http://www.w3.org/1999/xlink" xmlns:svgjs="http://svgjs.dev/svgjs" width="125" height="50" viewBox="250 150 500 300"><rect width="150" height="50" x="0" y="0" fill="none"/><g><circle r="166.66666666666666" cx="337.0605112711588" cy="359.2827102206851" fill="#1977f2" transform="matrix(0.7335946824408757,0,0,0.7335946824408756,0,36.43210019855155)"/><path d="M304.8229714569602 405.8465838813347L304.8229714569602 405.8465838813347L304.8229714569602 302.19398391118347Q304.8229714569602 300.84117002485937 327.03617547040164 292.561949040556Q349.2493794838431 284.2827280562526 352.5502453664738 284.2827280562526Q355.85111124910463 284.2827280562526 362.5881244029985 292.2643299855647Q369.29808127916596 300.2459319148768 369.29808127916596 306.68532601377945L369.29808127916596 306.68532601377945L369.29808127916596 416.1550256951242Q369.29808127916596 417.72428980326015 347.97773443069843 426.0035107875635Q326.6303313045044 434.2827317718669 321.86842642464364 434.2827317718669Q317.1065215447828 434.2827317718669 310.9647465008715 425.8952856766576Q304.8229714569602 417.53489585917475 304.8229714569602 405.8465838813347ZM338.1292493382591 416.37147591693605L338.1292493382591 416.37147591693605Q341.83595938678707 416.37147591693605 345.7320633794004 413.23294770066417L345.7320633794004 413.23294770066417L345.7320633794004 316.80437388348355Q345.7320633794004 302.4104341329953 335.8024094537817 302.4104341329953L335.8024094537817 302.4104341329953Q331.90630546116836 302.4104341329953 328.19959541264035 305.33251212745535L328.19959541264035 305.33251212745535L328.19959541264035 401.9504798887213Q328.19959541264035 416.37147591693605 338.1292493382591 416.37147591693605Z " fill="#ffffff" transform="matrix(0.7335946824408757,0,0,0.7335946824408756,0,36.43210019855155)"/><path d="M587.0605279079473 406.5664799372006L587.0605279079473 406.5664799372006L587.0605279079473 305.5380008216953Q587.0605279079473 304.21943544561196 608.7113713832357 296.1498153439819Q630.3622148585241 288.0801952423519 633.5795143761675 288.0801952423519Q636.7968138938108 288.0801952423519 643.3632694667059 295.8597309612436Q649.9033537320793 303.6392666801353 649.9033537320793 309.915637870292L649.9033537320793 309.915637870292L649.9033537320793 416.61394810295565Q649.9033537320793 418.14348393921233 629.1227634050058 426.2131040408424Q608.3158017704108 434.2827241424724 603.6744516465974 434.2827241424724Q599.0331015227841 434.2827241424724 593.0468147153657 426.1076188107557Q587.0605279079473 417.95888478656065 587.0605279079473 406.5664799372006ZM619.5236074671191 416.824918563129L619.5236074671191 416.824918563129Q623.1364765975875 416.824918563129 626.9339448807075 413.76584689061565L626.9339448807075 413.76584689061565L626.9339448807075 319.7785068833953Q626.9339448807075 305.74897128186865 617.2556750202558 305.74897128186865L617.2556750202558 305.74897128186865Q613.4582067371357 305.74897128186865 609.8453376066675 308.59707249420865L609.8453376066675 308.59707249420865L609.8453376066675 402.7690116540806Q609.8453376066675 416.824918563129 619.5236074671191 416.824918563129ZM704.5974455320161 288.0801952423519L704.5974455320161 288.0801952423519Q709.7134791912194 288.0801952423519 720.7366857352761 312.94833823528364Q731.7335209718111 337.8164812282154 731.7335209718111 347.3101519360155L731.7335209718111 347.3101519360155L731.7335209718111 405.22154325359566Q731.7335209718111 409.5991803021923 734.1069386487611 413.76584689061565Q736.4803563257112 417.95888478656065 740.8579933743079 418.51268224451564L740.8579933743079 418.51268224451564L740.8579933743079 422.7057201404607Q739.5394279982245 422.8903192931123 720.1565169697994 434.2827241424724L720.1565169697994 434.2827241424724Q715.8052512287245 432.3839900009124 712.2714960208211 428.692006947879Q708.7641121204394 424.973652587324 708.7641121204394 421.7563530696807L708.7641121204394 421.7563530696807Q688.458205328756 434.2827241424724 685.0299353509394 434.2827241424724L685.0299353509394 434.2827241424724Q683.711369974856 434.2827241424724 679.9930156143009 431.3291377000457Q676.3010325612677 428.4019225651407 672.6090495082343 422.78483406302564Q668.8906951476793 417.1941168684323 668.8906951476793 411.31331529110065L668.8906951476793 411.31331529110065L668.8906951476793 343.5126836528954Q668.8906951476793 341.6139495113354 700.9845764015477 330.4325151221487L700.9845764015477 330.4325151221487Q694.1544077534361 315.4272411423203 689.961369857491 309.3354691048153Q685.7947032690677 303.27006837483196 681.812635833296 303.27006837483196L681.812635833296 303.27006837483196L675.5362646431392 303.27006837483196L675.5362646431392 297.5738659501519Q696.606939352951 288.0801952423519 704.5974455320161 288.0801952423519ZM701.353774706851 416.824918563129L701.353774706851 416.824918563129Q704.9666438373195 416.824918563129 708.7641121204394 413.76584689061565L708.7641121204394 413.76584689061565L708.7641121204394 347.7057215488404Q708.7641121204394 346.5717553254088 707.1554623616178 342.85340096485373Q705.5468126027961 339.1614179118204 704.7820446846678 339.1614179118204L704.7820446846678 339.1614179118204Q699.2704414126393 339.1614179118204 693.5742389879593 342.5633165821154L693.5742389879593 342.5633165821154L691.6755048463993 343.72365411306873L691.6755048463993 402.7690116540806Q691.6755048463993 416.824918563129 701.353774706851 416.824918563129ZM773.3210729334796 338.97681875916874L773.3210729334796 338.97681875916874L773.3210729334796 406.17091032437565Q773.3210729334796 417.774285633909 781.1006086523713 419.27745016264396L781.1006086523713 419.27745016264396L781.1006086523713 423.470488058589L761.9286680841195 434.2827241424724Q757.7620014956963 432.56858915356406 754.1491323652278 428.692006947879Q750.5362632347595 424.7890534346724 750.5362632347595 421.36078345685564L750.5362632347595 421.36078345685564L750.5362632347595 354.1666918916488Q750.5362632347595 342.5633165821154 742.7567275158679 341.0601520533804L742.7567275158679 341.0601520533804L742.7567275158679 336.8671141574354L761.9286680841195 326.05487807355206Q766.1217059800646 327.7690130624604 769.7082038030113 331.64559526814537Q773.3210729334796 335.54854878135205 773.3210729334796 338.97681875916874ZM747.6881620224195 302.32070130405197L747.6881620224195 302.32070130405197L747.6881620224195 290.74369730204023Q747.6881620224195 290.1635285365636 755.573182971398 287.23631340165855Q763.4582039203763 284.2827269592319 764.6976553738946 284.2827269592319Q765.9107355198912 284.2827269592319 768.2841531968413 287.5000264768753Q770.6575708737912 290.74369730204023 770.6575708737912 294.1455959723353L770.6575708737912 294.1455959723353L770.6575708737912 308.01690372873196Q770.6575708737912 308.59707249420865 763.0626343075512 311.5242876291137Q755.4676977413112 314.4778740715403 753.7799340599245 314.4778740715403Q752.0657990710163 314.4778740715403 749.8769805467178 311.15508932381033Q747.6881620224195 307.83230457608033 747.6881620224195 302.32070130405197ZM792.3084143490797 421.36078345685564L792.3084143490797 421.36078345685564L792.3084143490797 357.0147931039888Q792.3084143490797 350.7384219138321 789.6449122893914 346.1761857125838Q787.0077815372247 341.6139495113354 782.9993427939313 341.6139495113354L782.9993427939313 341.6139495113354L782.9993427939313 337.44728292291205Q784.3442794775364 337.2626837702604 803.7008191984397 325.8702789209004L803.7008191984397 325.8702789209004Q805.0457558820447 326.2394772262037 806.9444900236048 326.8987599142454Q808.8432241651648 327.5844139098087 811.9550384527214 330.6171142748004Q815.0932240477997 333.64981463979206 815.0932240477997 337.63188207556374L815.0932240477997 337.63188207556374Q816.2271902712314 337.07808461760874 821.5541943906081 334.01901294509537L821.5541943906081 334.01901294509537Q835.6101012996564 326.05487807355206 838.2736033593449 326.05487807355206L838.2736033593449 326.05487807355206Q844.3390040893282 326.05487807355206 849.6660082087049 334.01901294509537Q854.9666410205598 342.0095191241604 854.9666410205598 348.6550886196204L854.9666410205598 348.6550886196204L854.9666410205598 406.17091032437565Q854.9666410205598 416.61394810295565 864.2757125757082 418.51268224451564L864.2757125757082 418.51268224451564L864.2757125757082 422.7057201404607L843.5742361711998 434.2827241424724Q839.4075695827765 432.56858915356406 835.7947004523081 428.692006947879Q832.1818313218398 424.7890534346724 832.1818313218398 421.36078345685564L832.1818313218398 421.36078345685564L832.1818313218398 366.2974933516155Q832.1818313218398 355.6698564203838 829.8084136448898 350.0791392257904Q827.4349959679398 344.4620507236754 821.3695952379564 344.4620507236754L821.3695952379564 344.4620507236754L815.0932240477997 345.6223882546288L815.0932240477997 406.17091032437565Q815.0932240477997 417.774285633909 822.8727597666914 419.27745016264396L822.8727597666914 419.27745016264396L822.8727597666914 423.470488058589L803.7008191984397 434.2827241424724Q799.5341526100163 432.56858915356406 795.921283479548 428.692006947879Q792.3084143490797 424.7890534346724 792.3084143490797 421.36078345685564ZM896.73879213488 344.0928524183721L896.73879213488 400.1055095943923Q896.73879213488 416.824918563129 905.4676949245518 416.824918563129L905.4676949245518 416.824918563129Q910.0299311258 416.824918563129 913.8273994089201 413.76584689061565L913.8273994089201 413.76584689061565L913.8273994089201 366.2974933516155Q913.8273994089201 347.7057215488404 906.9972307608084 345.22681864180373L906.9972307608084 345.22681864180373Q903.779931243165 344.0928524183721 896.73879213488 344.0928524183721L896.73879213488 344.0928524183721ZM936.7968082602918 416.61394810295565Q936.7968082602918 418.51268224451564 915.8316187805667 426.397703193494Q894.84005799332 434.2827241424724 890.09322263942 434.2827241424724Q885.34638728552 434.2827241424724 879.65018486084 425.63293527536564Q873.95398243616 417.00951771578065 873.95398243616 406.5664799372006L873.95398243616 406.5664799372006L873.95398243616 327.3734434496354Q873.95398243616 322.257409790432 872.2398474472516 320.0685912661337Q870.5520837658648 317.8797727418353 866.3590458699199 317.8797727418353L866.3590458699199 317.8797727418353L866.3590458699199 312.57913992998033Q891.0425897102 299.6571992443636 910.425500738625 288.2647943950036L910.425500738625 288.2647943950036L913.4582011036168 294.3565664325086Q911.5594669620567 295.3059335032886 908.13119698424 298.04854948554197Q904.729298313945 300.7911654677953 902.43499455956 303.6392666801353L902.43499455956 303.6392666801353Q896.73879213488 310.865004941072 896.73879213488 319.9894773435687L896.73879213488 319.9894773435687L896.73879213488 336.12871754682874Q916.3063023159566 326.05487807355206 919.5236018336 326.05487807355206L919.5236018336 326.05487807355206Q924.4550363401518 326.05487807355206 930.6259223002219 333.83441379244374Q936.7968082602918 341.6139495113354 936.7968082602918 350.3692236085288L936.7968082602918 350.3692236085288L936.7968082602918 416.61394810295565ZM955.5995505232402 406.5664799372006L955.5995505232402 406.5664799372006L955.5995505232402 343.5126836528954Q955.5995505232402 342.1941182768121 977.2503939985286 334.12449817518205Q998.901237473817 326.05487807355206 1002.1185369914604 326.05487807355206Q1005.3622078166253 326.05487807355206 1011.9022920819987 333.83441379244374Q1018.4423763473721 341.6139495113354 1018.4423763473721 347.8903207014921L1018.4423763473721 347.8903207014921L1018.4423763473721 416.61394810295565Q1018.4423763473721 418.14348393921233 997.6617860202987 426.2131040408424Q976.8811956932252 434.2827241424724 972.2134742618903 434.2827241424724Q967.5721241380769 434.2827241424724 961.5858373306585 426.1076188107557Q955.5995505232402 417.95888478656065 955.5995505232402 406.5664799372006ZM988.0626300824119 416.824918563129L988.0626300824119 416.824918563129Q991.6754992128804 416.824918563129 995.4729674960004 413.76584689061565L995.4729674960004 413.76584689061565L995.4729674960004 357.75318971459546Q995.4729674960004 343.72365411306873 985.7946976355486 343.72365411306873L985.7946976355486 343.72365411306873Q981.9972293524286 343.72365411306873 978.3843602219604 346.5717553254088L978.3843602219604 346.5717553254088L978.3843602219604 402.7690116540806Q978.3843602219604 416.824918563129 988.0626300824119 416.824918563129ZM1037.4297177629721 406.5664799372006L1037.4297177629721 406.5664799372006L1037.4297177629721 343.5126836528954Q1037.4297177629721 342.1941182768121 1059.0805612382605 334.12449817518205Q1080.731404713549 326.05487807355206 1083.9487042311923 326.05487807355206Q1087.1923750563574 326.05487807355206 1093.7324593217306 333.83441379244374Q1100.2989148946258 341.6139495113354 1100.2989148946258 347.8903207014921L1100.2989148946258 347.8903207014921L1100.2989148946258 416.61394810295565Q1100.2989148946258 418.14348393921233 1079.4919532600306 426.2131040408424Q1058.7113629329572 434.2827241424724 1054.0436415016222 434.2827241424724Q1049.4022913778088 434.2827241424724 1043.4160045703904 426.1076188107557Q1037.4297177629721 417.95888478656065 1037.4297177629721 406.5664799372006ZM1069.9191686296656 416.824918563129L1069.9191686296656 416.824918563129Q1073.5056664526123 416.824918563129 1077.3031347357323 413.76584689061565L1077.3031347357323 413.76584689061565L1077.3031347357323 357.75318971459546Q1077.3031347357323 343.72365411306873 1067.6248648752805 343.72365411306873L1067.6248648752805 343.72365411306873Q1063.8273965921605 343.72365411306873 1060.2145274616923 346.5717553254088L1060.2145274616923 346.5717553254088L1060.2145274616923 402.7690116540806Q1060.2145274616923 416.824918563129 1069.9191686296656 416.824918563129ZM1142.0710660089458 384.9156364619122L1142.0710660089458 406.17091032437565Q1142.0710660089458 417.774285633909 1149.8506017278373 419.27745016264396L1149.8506017278373 419.27745016264396L1149.8506017278373 423.470488058589L1130.6786611595858 434.2827241424724Q1126.4856232636407 432.56858915356406 1122.8727541331723 428.692006947879Q1119.2862563102258 424.7890534346724 1119.2862563102258 421.36078345685564L1119.2862563102258 421.36078345685564L1119.2862563102258 327.3734434496354Q1119.2862563102258 322.257409790432 1117.5721213213174 320.0685912661337Q1115.857986332409 317.8797727418353 1111.6913197439858 317.8797727418353L1111.6913197439858 317.8797727418353L1111.6913197439858 312.57913992998033Q1136.3748635842658 299.6571992443636 1155.7314033051691 288.2647943950036L1155.7314033051691 288.2647943950036L1158.7641036701607 294.3565664325086Q1156.8653695286007 295.3059335032886 1153.4634708583058 298.04854948554197Q1150.0352008804894 300.7911654677953 1147.7672684336258 303.6392666801353L1147.7672684336258 303.6392666801353Q1142.0710660089458 310.865004941072 1142.0710660089458 319.9894773435687L1142.0710660089458 319.9894773435687L1142.0710660089458 337.44728292291205Q1159.713470740941 326.05487807355206 1162.9571415661057 326.05487807355206L1162.9571415661057 326.05487807355206Q1168.257774377961 326.05487807355206 1174.7187447207693 332.9905319517504Q1181.1797150635775 339.92618582994874 1181.1797150635775 348.4704894669688L1181.1797150635775 348.4704894669688L1181.1797150635775 369.1455945639555Q1181.1797150635775 371.2552991656888 1161.4276057298493 378.8502357319289L1161.4276057298493 378.8502357319289Q1173.400179344686 410.5485473729723 1184.792584194046 415.2953827268723L1184.792584194046 415.2953827268723Q1188.3790820169925 417.00951771578065 1192.756719065589 417.378716021084L1192.756719065589 417.378716021084L1192.756719065589 422.8903192931123Q1175.0879430260725 434.2827241424724 1170.5520781323457 434.2827241424724L1170.5520781323457 434.2827241424724Q1164.4603060948407 434.2827241424724 1155.0721206171274 415.77006626226233Q1145.6575638318923 397.2574083820523 1142.0710660089458 384.9156364619122L1142.0710660089458 384.9156364619122ZM1142.0710660089458 345.4114177944554L1142.0710660089458 375.6065649067639Q1145.8685342920658 375.6065649067639 1155.7314033051691 370.8597295528638L1155.7314033051691 370.8597295528638L1159.1596732829858 369.1455945639555L1159.1596732829858 360.60129092693546Q1159.1596732829858 344.4620507236754 1148.1364667389291 344.4620507236754L1148.1364667389291 344.4620507236754L1142.0710660089458 345.4114177944554Z " fill="#1977f2" transform="matrix(0.7335946824408757,0,0,0.7335946824408756,0,36.43210019855155)"/></g></svg>